<svg width="20" height="21" viewBox="0 0 20 21" fill="none" xmlns="http://www.w3.org/2000/svg">
<path d="M18.2079 0.733005C18.6438 0.394089 19.274 0.424899 19.6746 0.825437C20.1085 1.25935 20.1085 1.96287 19.6746 2.39679L11.5713 10.5L19.6746 18.6032C20.1085 19.0371 20.1085 19.7406 19.6746 20.1746C19.274 20.5751 18.6438 20.6059 18.2079 20.267L18.1032 20.1746L10 12.0713L1.89679 20.1746L1.79211 20.267C1.35623 20.6059 0.725975 20.5751 0.325437 20.1746C-0.108479 19.7406 -0.108479 19.0371 0.325437 18.6032L8.42865 10.5L0.325438 2.39679C-0.108478 1.96287 -0.108478 1.25935 0.325438 0.825437C0.725976 0.424899 1.35623 0.394089 1.79211 0.733005L1.89679 0.825437L10 8.92865L18.1032 0.825437L18.2079 0.733005Z" fill="#1A191E"/>
</svg>
