<svg width="33" height="33" viewBox="0 0 33 33" fill="none" xmlns="http://www.w3.org/2000/svg">
<g filter="url(#filter0_dd_19_2707)">
<circle cx="16" cy="16" r="15" fill="url(#paint0_linear_19_2707)"/>
</g>
<g filter="url(#filter1_d_19_2707)">
<path fill-rule="evenodd" clip-rule="evenodd" d="M23.6551 10.3875C23.1951 9.87085 22.4495 9.87084 21.9895 10.3875L14.4774 18.8257L10.0105 13.8082C9.55054 13.2915 8.80486 13.2915 8.34494 13.8082C7.88502 14.3248 7.88502 15.1624 8.34494 15.679L13.3415 21.2915C13.4099 21.3684 13.4847 21.4338 13.5639 21.4878C13.5939 21.5311 13.6265 21.5728 13.6619 21.6125C14.1218 22.1292 14.8675 22.1292 15.3274 21.6125L23.6551 12.2583C24.115 11.7417 24.115 10.9041 23.6551 10.3875Z" fill="white"/>
</g>
<defs>
<filter id="filter0_dd_19_2707" x="0.8" y="0.8" width="32.2" height="32.2" filterUnits="userSpaceOnUse" color-interpolation-filters="sRGB">
<feFlood flood-opacity="0" result="BackgroundImageFix"/>
<feColorMatrix in="SourceAlpha" type="matrix" values="0 0 0 0 0 0 0 0 0 0 0 0 0 0 0 0 0 0 127 0" result="hardAlpha"/>
<feOffset dx="1" dy="1"/>
<feGaussianBlur stdDeviation="0.5"/>
<feColorMatrix type="matrix" values="0 0 0 0 0 0 0 0 0 0 0 0 0 0 0 0 0 0 0.2 0"/>
<feBlend mode="normal" in2="BackgroundImageFix" result="effect1_dropShadow_19_2707"/>
<feColorMatrix in="SourceAlpha" type="matrix" values="0 0 0 0 0 0 0 0 0 0 0 0 0 0 0 0 0 0 127 0" result="hardAlpha"/>
<feOffset dx="0.4" dy="0.4"/>
<feGaussianBlur stdDeviation="0.3"/>
<feComposite in2="hardAlpha" operator="out"/>
<feColorMatrix type="matrix" values="0 0 0 0 0 0 0 0 0 0 0 0 0 0 0 0 0 0 0.2 0"/>
<feBlend mode="normal" in2="effect1_dropShadow_19_2707" result="effect2_dropShadow_19_2707"/>
<feBlend mode="normal" in="SourceGraphic" in2="effect2_dropShadow_19_2707" result="shape"/>
</filter>
<filter id="filter1_d_19_2707" x="7.8" y="9.8" width="17.2" height="13.2" filterUnits="userSpaceOnUse" color-interpolation-filters="sRGB">
<feFlood flood-opacity="0" result="BackgroundImageFix"/>
<feColorMatrix in="SourceAlpha" type="matrix" values="0 0 0 0 0 0 0 0 0 0 0 0 0 0 0 0 0 0 127 0" result="hardAlpha"/>
<feOffset dx="0.4" dy="0.4"/>
<feGaussianBlur stdDeviation="0.3"/>
<feComposite in2="hardAlpha" operator="out"/>
<feColorMatrix type="matrix" values="0 0 0 0 0 0 0 0 0 0 0 0 0 0 0 0 0 0 0.2 0"/>
<feBlend mode="normal" in2="BackgroundImageFix" result="effect1_dropShadow_19_2707"/>
<feBlend mode="normal" in="SourceGraphic" in2="effect1_dropShadow_19_2707" result="shape"/>
</filter>
<linearGradient id="paint0_linear_19_2707" x1="16" y1="1" x2="16" y2="31" gradientUnits="userSpaceOnUse">
<stop stop-color="#50D2B3"/>
<stop offset="1" stop-color="#15B891"/>
</linearGradient>
</defs>
</svg>
