<svg width="40" height="41" viewBox="0 0 40 41" fill="none" xmlns="http://www.w3.org/2000/svg">
<path fill-rule="evenodd" clip-rule="evenodd" d="M20.001 0.5L20.3309 0.502654C31.1962 0.677593 39.9547 9.47879 40 20.3288V20.501L39.9989 20.6471C39.9442 25.4627 38.1664 29.8661 35.2564 33.282L35.2507 33.2791C35.1427 33.2219 34.9488 33.0427 34.6028 32.5224L34.591 32.5051C34.1754 31.8925 31.0935 27.0705 31.0935 21.5524L31.094 21.5194C31.1249 20.4242 32.6764 18.7344 34.0509 17.2494L34.135 17.158C35.1416 16.0634 36.0817 15.0334 36.434 14.2194L36.4475 14.1871C36.8885 13.1246 36.5673 12.3832 36.0624 12.1302L36.0469 12.1228C35.5848 11.9068 34.9017 12.0783 34.4203 12.9372L34.3961 12.9799C33.6167 14.3482 33.3541 14.615 32.2014 15.5462L32.1668 15.5744C31.0189 16.5051 29.233 17.4203 29.233 16.2074L29.2333 16.1862C29.2474 15.7351 29.7028 14.9202 30.1506 14.1188L30.1506 14.1188L30.1506 14.1188C30.3694 13.7273 30.5863 13.339 30.7492 12.998L30.7642 12.9662C31.2503 11.9211 30.6988 11.168 29.6522 11.168L29.5901 11.1688C27.5485 11.221 26.1978 13.8352 26.1978 14.7466L26.1981 14.7885C26.2044 15.2059 26.304 15.4579 26.4072 15.7191C26.5223 16.0104 26.642 16.3131 26.642 16.8692L26.6413 16.9017C26.5964 17.9767 24.3425 19.3488 22.2184 19.3488L22.1539 19.3487C20.0344 19.3395 18.8429 18.8765 18.3948 17.5786L18.2512 17.1522L18.2241 17.0725C17.7292 15.6181 17.3656 14.5526 16.7416 13.4396L16.7152 13.3939C16.3846 12.8319 15.894 12.4336 15.4623 12.0832L15.433 12.0594L15.4012 12.0344C14.8334 11.5845 14.5376 11.1711 14.4752 10.8614L14.4734 10.8519C14.4159 10.5363 14.3947 9.9446 15.391 8.5984L15.4209 8.55794C16.3979 7.22582 16.531 6.21933 16.0334 5.6976L16.0179 5.68213C15.8339 5.50343 15.5297 5.39 15.142 5.39L15.1184 5.39014C14.415 5.39842 13.4456 5.77686 12.4468 6.797L12.4004 6.84548C11.2281 8.09036 11.498 9.28202 11.675 10.0635C11.7254 10.2858 11.7682 10.4749 11.7682 10.6226L11.7681 10.6452C11.7616 11.3046 11.4698 11.6871 10.5384 12.593L10.5101 12.6206C9.58286 13.5292 9.2607 14.3339 9.15319 17.473L9.15156 17.5325C9.10461 19.1295 8.82226 20.0574 8.56839 20.881L8.55454 20.9266C8.33796 21.6408 8.14176 22.3197 8.13099 23.292L8.13021 23.3539C8.12029 24.4188 8.2998 25.1164 8.50839 25.9192L8.51748 25.9522C8.7236 26.7006 8.94085 27.5628 9.08079 28.991L9.09079 29.092C9.32239 31.4776 9.20617 33.4727 8.70779 35.552L8.68219 35.6914L8.67493 35.7208C8.59225 36.0554 8.49413 36.4496 8.36279 36.6002L8.21147 36.4911C3.2353 32.8687 0 27.0193 0 20.4154C0 9.4174 8.95439 0.5 20.001 0.5ZM19.9233 21.8932L19.8707 21.8928C19.2307 21.8928 18.7283 22.0556 18.3449 22.3778C17.0181 23.5005 17.0274 26.609 17.0539 30.227L17.0547 30.3368L17.0613 31.3744C17.0768 34.9713 17.0971 38.0865 17.9258 39.4881L17.9511 39.53C18.218 39.9622 18.7177 40.2803 19.3817 40.4745L19.4217 40.486C19.4691 40.4874 19.5164 40.4891 19.5638 40.4908L19.5643 40.4908L19.5649 40.4908C19.6587 40.4942 19.7527 40.4975 19.8472 40.4991L19.9545 40.5C21.6095 40.5 23.2177 40.3011 24.7582 39.9328L24.8631 39.9074C25.5009 39.602 25.9662 39.236 26.1358 38.8544L26.1451 38.8328C26.2397 38.5859 26.2928 38.1417 26.2953 37.5626L26.2954 37.521C26.2954 35.1541 25.5975 30.6455 25.2501 28.4011L25.2474 28.3831L25.237 28.316L25.0616 27.1568L25.0285 26.9282L25.027 26.9173C24.7363 24.882 24.408 22.5833 20.7159 21.9722L20.6027 21.9542C20.3611 21.9163 20.1348 21.8961 19.9233 21.8932ZM12.7908 29.5821L12.7677 29.581L12.7545 29.5812C11.922 29.6325 11.6002 33.9476 11.9511 36.8854L11.9619 36.974C12.0802 37.891 12.2651 38.5953 12.5065 39.0503L12.5207 39.0768C12.8466 39.2096 13.1766 39.333 13.5115 39.4484L13.6553 39.4974C13.9917 39.1994 14.2035 38.3753 14.139 36.3822L14.1369 36.3214C14.0377 33.4413 13.5502 29.6577 12.7908 29.5821ZM29.3557 29.9166L29.3159 29.9152C29.2418 29.9152 29.17 29.9304 29.101 29.962C28.1179 30.4261 28.4856 35.7129 29.489 37.4856L29.5196 37.5382C29.623 37.7053 29.833 37.7366 30.0705 37.7019L30.0921 37.6986C30.8276 37.2764 31.5322 36.8091 32.2045 36.302L32.3103 36.2216C32.395 36.0562 32.4645 35.8617 32.5153 35.6138L32.5236 35.572C32.7036 34.6986 30.6769 30.0109 29.3557 29.9166Z" fill="#CCD5E2"/>
</svg>
