<svg width="28" height="23" viewBox="0 0 28 23" fill="none" xmlns="http://www.w3.org/2000/svg">
<path d="M16.5 13.6875C16.5 13.1697 16.9198 12.75 17.4375 12.75H19.3125C19.8302 12.75 20.25 13.1697 20.25 13.6875C20.25 14.2052 19.8302 14.625 19.3125 14.625H17.4375C16.9198 14.625 16.5 14.2052 16.5 13.6875Z" fill="#7D8B9F"/>
<path fill-rule="evenodd" clip-rule="evenodd" d="M6.1875 4C4.97938 4 4 4.97937 4 6.1875V16.8125C4 18.0206 4.97938 19 6.1875 19H21.8125C23.0206 19 24 18.0206 24 16.8125V6.1875C24 4.97937 23.0206 4 21.8125 4H6.1875ZM22.125 7.75V6.1875C22.125 6.01491 21.9851 5.875 21.8125 5.875H6.1875C6.01491 5.875 5.875 6.01491 5.875 6.1875V7.75H22.125ZM5.875 9.625H22.125V16.8125C22.125 16.9851 21.9851 17.125 21.8125 17.125H6.1875C6.01491 17.125 5.875 16.9851 5.875 16.8125V9.625Z" fill="#7D8B9F"/>
<path fill-rule="evenodd" clip-rule="evenodd" d="M22 0C21.4477 0 21 0.447715 21 1C21 1.55228 21.4477 2 22 2H26V6C26 6.55228 26.4477 7 27 7C27.5523 7 28 6.55228 28 6V1C28 0.447715 27.5523 0 27 0H22Z" fill="#7D8B9F"/>
<path fill-rule="evenodd" clip-rule="evenodd" d="M6 23C6.55228 23 7 22.5523 7 22C7 21.4477 6.55228 21 6 21L2 21L2 17C2 16.4477 1.55228 16 1 16C0.447715 16 -9.59818e-08 16.4477 -5.24537e-07 17L-8.74228e-08 22C-3.91405e-08 22.5523 0.447715 23 1 23L6 23Z" fill="#7D8B9F"/>
<path fill-rule="evenodd" clip-rule="evenodd" d="M-4.37114e-08 6C-1.95703e-08 6.55228 0.447715 7 1 7C1.55228 7 2 6.55228 2 6L2 2L6 2C6.55228 2 7 1.55228 7 1C7 0.447715 6.55228 1.90428e-07 6 -2.62268e-07L1 -4.37114e-08C0.447715 -1.95703e-08 -2.86409e-07 0.447715 -2.62268e-07 1L-4.37114e-08 6Z" fill="#7D8B9F"/>
<path fill-rule="evenodd" clip-rule="evenodd" d="M28 17C28 16.4477 27.5523 16 27 16C26.4477 16 26 16.4477 26 17L26 21L22 21C21.4477 21 21 21.4477 21 22C21 22.5523 21.4477 23 22 23L27 23C27.5523 23 28 22.5523 28 22L28 17Z" fill="#7D8B9F"/>
</svg>
