<svg width="40" height="41" viewBox="0 0 40 41" fill="none" xmlns="http://www.w3.org/2000/svg">
<rect y="0.5" width="40" height="40" rx="20" fill="#F2B234"/>
<path d="M22.5 23.1875C22.5 22.6697 22.9198 22.25 23.4375 22.25H25.3125C25.8302 22.25 26.25 22.6697 26.25 23.1875C26.25 23.7052 25.8302 24.125 25.3125 24.125H23.4375C22.9198 24.125 22.5 23.7052 22.5 23.1875Z" fill="white"/>
<path fill-rule="evenodd" clip-rule="evenodd" d="M12.1875 13.5C10.9794 13.5 10 14.4794 10 15.6875V26.3125C10 27.5206 10.9794 28.5 12.1875 28.5H27.8125C29.0206 28.5 30 27.5206 30 26.3125V15.6875C30 14.4794 29.0206 13.5 27.8125 13.5H12.1875ZM28.125 17.25V15.6875C28.125 15.5149 27.9851 15.375 27.8125 15.375H12.1875C12.0149 15.375 11.875 15.5149 11.875 15.6875V17.25H28.125ZM11.875 19.125H28.125V26.3125C28.125 26.4851 27.9851 26.625 27.8125 26.625H12.1875C12.0149 26.625 11.875 26.4851 11.875 26.3125V19.125Z" fill="white"/>
</svg>
