<svg width="42" height="40" viewBox="0 0 42 40" fill="none" xmlns="http://www.w3.org/2000/svg">
<path fill-rule="evenodd" clip-rule="evenodd" d="M29.7856 6.49481C30.5495 7.06061 31 7.95495 31 8.90553V17C31 18.6569 29.6569 20 28 20H26.452C24.8576 20 23.5651 18.7075 23.5651 17.1132V16.7736C23.5651 15.3668 22.4247 14.2263 21.0178 14.2263C19.611 14.2263 18.4706 15.3668 18.4706 16.7736V17.1132C18.4706 18.7075 17.1781 20 15.5837 20H14.0201C12.3554 20 11.0091 18.6446 11.0202 16.9799L11.0741 8.92353C11.0803 7.98527 11.5252 7.10398 12.2764 6.54177L19.2289 1.3384C20.2901 0.544123 21.7469 0.540502 22.8121 1.32949L29.7856 6.49481Z" fill="#C4C4C4"/>
<path d="M6.42248 30.32H2.40848V38H1.24448V29.402H6.42248V30.32ZM10.4455 38H9.37748V32.762H7.45748C7.40948 33.534 7.33748 34.202 7.24148 34.766C7.14548 35.326 7.02948 35.804 6.89348 36.2C6.76148 36.592 6.61148 36.912 6.44348 37.16C6.27948 37.404 6.10548 37.594 5.92148 37.73C5.74148 37.866 5.55348 37.958 5.35748 38.006C5.16548 38.054 4.97348 38.078 4.78148 38.078C4.44148 38.078 4.27148 38.024 4.27148 37.916V37.238H4.58348C4.71948 37.238 4.85748 37.214 4.99748 37.166C5.13748 37.118 5.27348 37.026 5.40548 36.89C5.54148 36.754 5.67148 36.564 5.79548 36.32C5.91948 36.072 6.03148 35.752 6.13148 35.36C6.23548 34.964 6.32348 34.486 6.39548 33.926C6.47148 33.362 6.52948 32.694 6.56948 31.922H10.4455V38ZM15.431 35.264C14.939 35.28 14.519 35.32 14.171 35.384C13.827 35.444 13.545 35.524 13.325 35.624C13.109 35.724 12.951 35.842 12.851 35.978C12.755 36.114 12.707 36.266 12.707 36.434C12.707 36.594 12.733 36.732 12.785 36.848C12.837 36.964 12.907 37.06 12.995 37.136C13.087 37.208 13.193 37.262 13.313 37.298C13.437 37.33 13.569 37.346 13.709 37.346C13.897 37.346 14.069 37.328 14.225 37.292C14.381 37.252 14.527 37.196 14.663 37.124C14.803 37.052 14.935 36.966 15.059 36.866C15.187 36.766 15.311 36.652 15.431 36.524V35.264ZM11.981 32.78C12.317 32.456 12.679 32.214 13.067 32.054C13.455 31.894 13.885 31.814 14.357 31.814C14.697 31.814 14.999 31.87 15.263 31.982C15.527 32.094 15.749 32.25 15.929 32.45C16.109 32.65 16.245 32.892 16.337 33.176C16.429 33.46 16.475 33.772 16.475 34.112V38H16.001C15.897 38 15.817 37.984 15.761 37.952C15.705 37.916 15.661 37.848 15.629 37.748L15.509 37.172C15.349 37.32 15.193 37.452 15.041 37.568C14.889 37.68 14.729 37.776 14.561 37.856C14.393 37.932 14.213 37.99 14.021 38.03C13.833 38.074 13.623 38.096 13.391 38.096C13.155 38.096 12.933 38.064 12.725 38C12.517 37.932 12.335 37.832 12.179 37.7C12.027 37.568 11.905 37.402 11.813 37.202C11.725 36.998 11.681 36.758 11.681 36.482C11.681 36.242 11.747 36.012 11.879 35.792C12.011 35.568 12.225 35.37 12.521 35.198C12.817 35.026 13.203 34.886 13.679 34.778C14.155 34.666 14.739 34.602 15.431 34.586V34.112C15.431 33.64 15.329 33.284 15.125 33.044C14.921 32.8 14.623 32.678 14.231 32.678C13.967 32.678 13.745 32.712 13.565 32.78C13.389 32.844 13.235 32.918 13.103 33.002C12.975 33.082 12.863 33.156 12.767 33.224C12.675 33.288 12.583 33.32 12.491 33.32C12.419 33.32 12.357 33.302 12.305 33.266C12.253 33.226 12.209 33.178 12.173 33.122L11.981 32.78ZM20.4359 37.25C20.8359 37.25 21.1519 37.158 21.3839 36.974C21.6159 36.786 21.7319 36.53 21.7319 36.206C21.7319 36.062 21.7099 35.932 21.6659 35.816C21.6219 35.696 21.5499 35.592 21.4499 35.504C21.3499 35.416 21.2159 35.348 21.0479 35.3C20.8839 35.252 20.6819 35.228 20.4419 35.228H19.1279V37.25H20.4359ZM19.1279 32.642V34.55H20.2979C20.4739 34.55 20.6359 34.526 20.7839 34.478C20.9359 34.426 21.0659 34.356 21.1739 34.268C21.2819 34.176 21.3659 34.068 21.4259 33.944C21.4859 33.816 21.5159 33.676 21.5159 33.524C21.5159 33.412 21.4959 33.304 21.4559 33.2C21.4159 33.092 21.3479 32.998 21.2519 32.918C21.1559 32.834 21.0299 32.768 20.8739 32.72C20.7179 32.668 20.5259 32.642 20.2979 32.642H19.1279ZM20.3279 31.922C20.7039 31.922 21.0259 31.96 21.2939 32.036C21.5619 32.112 21.7819 32.216 21.9539 32.348C22.1259 32.476 22.2519 32.628 22.3319 32.804C22.4119 32.98 22.4519 33.168 22.4519 33.368C22.4519 33.5 22.4339 33.638 22.3979 33.782C22.3619 33.926 22.2979 34.064 22.2059 34.196C22.1179 34.328 21.9959 34.448 21.8399 34.556C21.6879 34.66 21.4959 34.742 21.2639 34.802C21.7279 34.882 22.0859 35.044 22.3379 35.288C22.5899 35.528 22.7159 35.846 22.7159 36.242C22.7159 36.538 22.6559 36.796 22.5359 37.016C22.4199 37.232 22.2579 37.414 22.0499 37.562C21.8459 37.71 21.6059 37.82 21.3299 37.892C21.0539 37.964 20.7579 38 20.4419 38H18.1019V31.922H20.3279ZM29.119 31.922V38H28.045V35.156H25.129V38H24.055V31.922H25.129V34.346H28.045V31.922H29.119ZM34.1107 35.264C33.6187 35.28 33.1987 35.32 32.8507 35.384C32.5067 35.444 32.2247 35.524 32.0047 35.624C31.7887 35.724 31.6307 35.842 31.5307 35.978C31.4347 36.114 31.3867 36.266 31.3867 36.434C31.3867 36.594 31.4127 36.732 31.4647 36.848C31.5167 36.964 31.5867 37.06 31.6747 37.136C31.7667 37.208 31.8727 37.262 31.9927 37.298C32.1167 37.33 32.2487 37.346 32.3887 37.346C32.5767 37.346 32.7487 37.328 32.9047 37.292C33.0607 37.252 33.2067 37.196 33.3427 37.124C33.4827 37.052 33.6147 36.966 33.7387 36.866C33.8667 36.766 33.9907 36.652 34.1107 36.524V35.264ZM30.6607 32.78C30.9967 32.456 31.3587 32.214 31.7467 32.054C32.1347 31.894 32.5647 31.814 33.0367 31.814C33.3767 31.814 33.6787 31.87 33.9427 31.982C34.2067 32.094 34.4287 32.25 34.6087 32.45C34.7887 32.65 34.9247 32.892 35.0167 33.176C35.1087 33.46 35.1547 33.772 35.1547 34.112V38H34.6807C34.5767 38 34.4967 37.984 34.4407 37.952C34.3847 37.916 34.3407 37.848 34.3087 37.748L34.1887 37.172C34.0287 37.32 33.8727 37.452 33.7207 37.568C33.5687 37.68 33.4087 37.776 33.2407 37.856C33.0727 37.932 32.8927 37.99 32.7007 38.03C32.5127 38.074 32.3027 38.096 32.0707 38.096C31.8347 38.096 31.6127 38.064 31.4047 38C31.1967 37.932 31.0147 37.832 30.8587 37.7C30.7067 37.568 30.5847 37.402 30.4927 37.202C30.4047 36.998 30.3607 36.758 30.3607 36.482C30.3607 36.242 30.4267 36.012 30.5587 35.792C30.6907 35.568 30.9047 35.37 31.2007 35.198C31.4967 35.026 31.8827 34.886 32.3587 34.778C32.8347 34.666 33.4187 34.602 34.1107 34.586V34.112C34.1107 33.64 34.0087 33.284 33.8047 33.044C33.6007 32.8 33.3027 32.678 32.9107 32.678C32.6467 32.678 32.4247 32.712 32.2447 32.78C32.0687 32.844 31.9147 32.918 31.7827 33.002C31.6547 33.082 31.5427 33.156 31.4467 33.224C31.3547 33.288 31.2627 33.32 31.1707 33.32C31.0987 33.32 31.0367 33.302 30.9847 33.266C30.9327 33.226 30.8887 33.178 30.8527 33.122L30.6607 32.78ZM39.9795 34.76V32.642H38.9595C38.7315 32.642 38.5395 32.676 38.3835 32.744C38.2275 32.808 38.1015 32.892 38.0055 32.996C37.9135 33.096 37.8475 33.21 37.8075 33.338C37.7675 33.462 37.7475 33.586 37.7475 33.71C37.7475 34.038 37.8675 34.296 38.1075 34.484C38.3475 34.668 38.6755 34.76 39.0915 34.76H39.9795ZM40.9995 31.922V38H39.9795V35.438H39.5115C39.3995 35.438 39.3055 35.448 39.2295 35.468C39.1575 35.484 39.0935 35.508 39.0375 35.54C38.9855 35.572 38.9395 35.614 38.8995 35.666C38.8595 35.714 38.8175 35.77 38.7735 35.834L37.4415 37.628C37.3735 37.756 37.2895 37.85 37.1895 37.91C37.0935 37.97 36.9515 38 36.7635 38H36.0195L37.7835 35.708C37.9275 35.468 38.1175 35.308 38.3535 35.228C38.0455 35.188 37.7855 35.116 37.5735 35.012C37.3615 34.908 37.1875 34.786 37.0515 34.646C36.9195 34.502 36.8235 34.344 36.7635 34.172C36.7035 34 36.6735 33.826 36.6735 33.65C36.6735 33.442 36.7135 33.234 36.7935 33.026C36.8775 32.818 37.0095 32.634 37.1895 32.474C37.3695 32.31 37.6015 32.178 37.8855 32.078C38.1735 31.974 38.5215 31.922 38.9295 31.922H40.9995Z" fill="#C4C4C4"/>
</svg>
