<svg width="42" height="40" viewBox="0 0 42 40" fill="none" xmlns="http://www.w3.org/2000/svg">
<circle cx="21" cy="20" r="20" fill="#247CFF"/>
<path fill-rule="evenodd" clip-rule="evenodd" d="M29.7856 16.4948C30.5495 17.0606 31 17.9549 31 18.9055V27C31 28.6569 29.6569 30 28 30H26.452C24.8576 30 23.5651 28.7075 23.5651 27.1132V26.7736C23.5651 25.3668 22.4247 24.2263 21.0178 24.2263C19.611 24.2263 18.4706 25.3668 18.4706 26.7736V27.1132C18.4706 28.7075 17.1781 30 15.5837 30H14.0201C12.3554 30 11.0091 28.6446 11.0202 26.9799L11.0741 18.9235C11.0803 17.9853 11.5252 17.104 12.2764 16.5418L19.2289 11.3384C20.2901 10.5441 21.7469 10.5405 22.8121 11.3295L29.7856 16.4948Z" fill="white"/>
</svg>
