<svg width="61" height="41" viewBox="0 0 61 41" fill="none" xmlns="http://www.w3.org/2000/svg">
<path fill-rule="evenodd" clip-rule="evenodd" d="M32.884 0.297381C33.0494 0.4944 33.0783 0.783412 33.1361 1.36144C33.246 2.46012 33.3009 3.00946 33.6255 3.22817C33.7181 3.29059 33.8223 3.33375 33.9319 3.3551C34.316 3.42991 34.7433 3.08032 35.5979 2.38114C36.0474 2.01329 36.2722 1.82936 36.5286 1.80705C36.6043 1.80046 36.6806 1.80427 36.7553 1.81836C37.0081 1.86606 37.2135 2.07144 37.6243 2.4822L38.5177 3.37567C38.9285 3.78643 39.1339 3.99182 39.1816 4.24465C39.1957 4.31936 39.1995 4.39564 39.1929 4.47138C39.1706 4.7277 38.9867 4.9525 38.6188 5.4021C37.9196 6.25669 37.57 6.68398 37.6448 7.06812C37.6662 7.17772 37.7093 7.28191 37.7717 7.37451C37.9905 7.69904 38.5398 7.75398 39.6385 7.86385C40.2166 7.92166 40.5056 7.95056 40.7026 8.11605C40.7608 8.16494 40.8121 8.22156 40.8549 8.28434C41 8.49685 41 8.78732 41 9.36825V10.6319C41 11.2127 41 11.5031 40.855 11.7156C40.8121 11.7784 40.7608 11.8351 40.7026 11.884C40.5056 12.0494 40.2166 12.0783 39.6386 12.1361C38.5402 12.246 37.9909 12.3009 37.7722 12.6253C37.7097 12.718 37.6665 12.8223 37.6452 12.932C37.5704 13.3161 37.92 13.7432 38.619 14.5976C38.9867 15.0471 39.1706 15.2718 39.1929 15.528C39.1995 15.6039 39.1957 15.6802 39.1816 15.755C39.1339 16.0078 38.9286 16.2131 38.5179 16.6238L37.6243 17.5174C37.2136 17.9281 37.0082 18.1335 36.7554 18.1812C36.6806 18.1953 36.6043 18.1991 36.5286 18.1925C36.2723 18.1702 36.0475 17.9863 35.5979 17.6184C34.7434 16.9193 34.3161 16.5697 33.9319 16.6445C33.8223 16.6658 33.7181 16.709 33.6255 16.7714C33.301 16.9901 33.246 17.5395 33.1362 18.6383C33.0783 19.2165 33.0494 19.5057 32.8839 19.7027C32.835 19.7609 32.7785 19.8121 32.7157 19.8549C32.5032 20 32.2127 20 31.6316 20H30.3682C29.7873 20 29.4969 20 29.2843 19.8549C29.2216 19.8121 29.1649 19.7608 29.116 19.7026C28.9506 19.5056 28.9217 19.2166 28.8639 18.6385C28.754 17.5398 28.699 16.9905 28.3745 16.7717C28.2819 16.7093 28.1777 16.6662 28.0681 16.6448C27.684 16.57 27.2567 16.9196 26.4021 17.6189C25.9525 17.9867 25.7276 18.1707 25.4713 18.193C25.3956 18.1995 25.3193 18.1957 25.2446 18.1817C24.9918 18.134 24.7864 17.9286 24.3756 17.5178L23.4822 16.6243C23.0714 16.2136 22.866 16.0082 22.8183 15.7554C22.8042 15.6807 22.8004 15.6044 22.807 15.5286C22.8293 15.2723 23.0132 15.0475 23.3811 14.5979C24.0803 13.7433 24.4299 13.316 24.3551 12.9319C24.3337 12.8223 24.2906 12.7181 24.2282 12.6255C24.0095 12.3009 23.4601 12.246 22.3614 12.1361C21.7834 12.0783 21.4944 12.0494 21.2974 11.884C21.2392 11.8351 21.1879 11.7784 21.145 11.7156C21 11.5031 21 11.2127 21 10.6318V9.36834C21 8.78732 21 8.49681 21.1451 8.28428C21.1879 8.22154 21.2391 8.16496 21.2973 8.11609C21.4943 7.95056 21.7834 7.92166 22.3615 7.86384C23.4605 7.75395 24.0099 7.69901 24.2286 7.37437C24.291 7.28184 24.3341 7.17773 24.3554 7.06822C24.4303 6.68402 24.0806 6.25662 23.3813 5.40182C23.0133 4.95207 22.8293 4.72719 22.807 4.47078C22.8005 4.39514 22.8043 4.31895 22.8183 4.24434C22.866 3.99142 23.0714 3.78597 23.4823 3.37509L24.3756 2.48177C24.7864 2.07099 24.9918 1.8656 25.2447 1.8179C25.3193 1.80381 25.3956 1.80001 25.4713 1.8066C25.7277 1.8289 25.9525 2.01285 26.4022 2.38077C27.2567 3.07992 27.684 3.42949 28.068 3.35475C28.1777 3.3334 28.282 3.29021 28.3747 3.22773C28.6991 3.00901 28.754 2.45977 28.8639 1.36131C28.9217 0.783406 28.9506 0.494454 29.116 0.297456C29.1649 0.239182 29.2216 0.187884 29.2844 0.144994C29.4969 0 29.7873 0 30.3681 0H31.6318C32.2127 0 32.5031 0 32.7156 0.145049C32.7784 0.18791 32.8351 0.239163 32.884 0.297381ZM31 14C33.2091 14 35 12.2091 35 10C35 7.79086 33.2091 6 31 6C28.7909 6 27 7.79086 27 10C27 12.2091 28.7909 14 31 14Z" fill="#C4C4C4"/>
<path d="M8.41752 29.402V38H7.25352V34.088H2.61552V38H1.45152V29.402H2.61552V33.236H7.25352V29.402H8.41752ZM13.4818 35.264C12.9898 35.28 12.5698 35.32 12.2218 35.384C11.8778 35.444 11.5958 35.524 11.3758 35.624C11.1598 35.724 11.0018 35.842 10.9018 35.978C10.8058 36.114 10.7578 36.266 10.7578 36.434C10.7578 36.594 10.7838 36.732 10.8358 36.848C10.8878 36.964 10.9578 37.06 11.0458 37.136C11.1378 37.208 11.2438 37.262 11.3638 37.298C11.4878 37.33 11.6198 37.346 11.7598 37.346C11.9478 37.346 12.1198 37.328 12.2758 37.292C12.4318 37.252 12.5778 37.196 12.7138 37.124C12.8538 37.052 12.9858 36.966 13.1098 36.866C13.2378 36.766 13.3618 36.652 13.4818 36.524V35.264ZM10.0318 32.78C10.3678 32.456 10.7298 32.214 11.1178 32.054C11.5058 31.894 11.9358 31.814 12.4078 31.814C12.7478 31.814 13.0498 31.87 13.3138 31.982C13.5778 32.094 13.7998 32.25 13.9798 32.45C14.1598 32.65 14.2958 32.892 14.3878 33.176C14.4798 33.46 14.5258 33.772 14.5258 34.112V38H14.0518C13.9478 38 13.8678 37.984 13.8118 37.952C13.7558 37.916 13.7118 37.848 13.6798 37.748L13.5598 37.172C13.3998 37.32 13.2438 37.452 13.0918 37.568C12.9398 37.68 12.7798 37.776 12.6118 37.856C12.4438 37.932 12.2638 37.99 12.0718 38.03C11.8838 38.074 11.6738 38.096 11.4418 38.096C11.2058 38.096 10.9838 38.064 10.7758 38C10.5678 37.932 10.3858 37.832 10.2298 37.7C10.0778 37.568 9.9558 37.402 9.8638 37.202C9.7758 36.998 9.7318 36.758 9.7318 36.482C9.7318 36.242 9.7978 36.012 9.9298 35.792C10.0618 35.568 10.2758 35.37 10.5718 35.198C10.8678 35.026 11.2538 34.886 11.7298 34.778C12.2058 34.666 12.7898 34.602 13.4818 34.586V34.112C13.4818 33.64 13.3798 33.284 13.1758 33.044C12.9718 32.8 12.6738 32.678 12.2818 32.678C12.0178 32.678 11.7958 32.712 11.6158 32.78C11.4398 32.844 11.2858 32.918 11.1538 33.002C11.0258 33.082 10.9138 33.156 10.8178 33.224C10.7258 33.288 10.6338 33.32 10.5418 33.32C10.4698 33.32 10.4078 33.302 10.3558 33.266C10.3038 33.226 10.2598 33.178 10.2238 33.122L10.0318 32.78ZM20.3826 33.002C20.3506 33.046 20.3186 33.08 20.2866 33.104C20.2546 33.128 20.2106 33.14 20.1546 33.14C20.0946 33.14 20.0286 33.116 19.9566 33.068C19.8846 33.016 19.7946 32.96 19.6866 32.9C19.5826 32.84 19.4526 32.786 19.2966 32.738C19.1446 32.686 18.9566 32.66 18.7326 32.66C18.4326 32.66 18.1686 32.714 17.9406 32.822C17.7126 32.926 17.5206 33.078 17.3646 33.278C17.2126 33.478 17.0966 33.72 17.0166 34.004C16.9406 34.288 16.9026 34.606 16.9026 34.958C16.9026 35.326 16.9446 35.654 17.0286 35.942C17.1126 36.226 17.2306 36.466 17.3826 36.662C17.5386 36.854 17.7246 37.002 17.9406 37.106C18.1606 37.206 18.4066 37.256 18.6786 37.256C18.9386 37.256 19.1526 37.226 19.3206 37.166C19.4886 37.102 19.6266 37.032 19.7346 36.956C19.8466 36.88 19.9386 36.812 20.0106 36.752C20.0866 36.688 20.1606 36.656 20.2326 36.656C20.3206 36.656 20.3886 36.69 20.4366 36.758L20.7366 37.148C20.6046 37.312 20.4546 37.452 20.2866 37.568C20.1186 37.684 19.9366 37.782 19.7406 37.862C19.5486 37.938 19.3466 37.994 19.1346 38.03C18.9226 38.066 18.7066 38.084 18.4866 38.084C18.1066 38.084 17.7526 38.014 17.4246 37.874C17.1006 37.734 16.8186 37.532 16.5786 37.268C16.3386 37 16.1506 36.672 16.0146 36.284C15.8786 35.896 15.8106 35.454 15.8106 34.958C15.8106 34.506 15.8726 34.088 15.9966 33.704C16.1246 33.32 16.3086 32.99 16.5486 32.714C16.7926 32.434 17.0906 32.216 17.4426 32.06C17.7986 31.904 18.2066 31.826 18.6666 31.826C19.0946 31.826 19.4706 31.896 19.7946 32.036C20.1226 32.172 20.4126 32.366 20.6646 32.618L20.3826 33.002ZM26.9351 32.738H24.6011V38H23.5331V32.738H21.1991V31.922H26.9351V32.738ZM29.0274 36.536C29.2234 36.8 29.4374 36.986 29.6694 37.094C29.9014 37.202 30.1614 37.256 30.4494 37.256C31.0174 37.256 31.4534 37.054 31.7574 36.65C32.0614 36.246 32.2134 35.67 32.2134 34.922C32.2134 34.526 32.1774 34.186 32.1054 33.902C32.0374 33.618 31.9374 33.386 31.8054 33.206C31.6734 33.022 31.5114 32.888 31.3194 32.804C31.1274 32.72 30.9094 32.678 30.6654 32.678C30.3174 32.678 30.0114 32.758 29.7474 32.918C29.4874 33.078 29.2474 33.304 29.0274 33.596V36.536ZM28.9734 32.864C29.2294 32.548 29.5254 32.294 29.8614 32.102C30.1974 31.91 30.5814 31.814 31.0134 31.814C31.3654 31.814 31.6834 31.882 31.9674 32.018C32.2514 32.15 32.4934 32.348 32.6934 32.612C32.8934 32.872 33.0474 33.196 33.1554 33.584C33.2634 33.972 33.3174 34.418 33.3174 34.922C33.3174 35.37 33.2574 35.788 33.1374 36.176C33.0174 36.56 32.8434 36.894 32.6154 37.178C32.3914 37.458 32.1154 37.68 31.7874 37.844C31.4634 38.004 31.0974 38.084 30.6894 38.084C30.3174 38.084 29.9974 38.022 29.7294 37.898C29.4654 37.77 29.2314 37.594 29.0274 37.37V40.058H27.9534V31.922H28.5954C28.7474 31.922 28.8414 31.996 28.8774 32.144L28.9734 32.864ZM37.2303 31.826C37.6743 31.826 38.0743 31.9 38.4303 32.048C38.7863 32.196 39.0903 32.406 39.3423 32.678C39.5943 32.95 39.7863 33.28 39.9183 33.668C40.0543 34.052 40.1223 34.482 40.1223 34.958C40.1223 35.438 40.0543 35.87 39.9183 36.254C39.7863 36.638 39.5943 36.966 39.3423 37.238C39.0903 37.51 38.7863 37.72 38.4303 37.868C38.0743 38.012 37.6743 38.084 37.2303 38.084C36.7823 38.084 36.3783 38.012 36.0183 37.868C35.6623 37.72 35.3583 37.51 35.1063 37.238C34.8543 36.966 34.6603 36.638 34.5243 36.254C34.3923 35.87 34.3263 35.438 34.3263 34.958C34.3263 34.482 34.3923 34.052 34.5243 33.668C34.6603 33.28 34.8543 32.95 35.1063 32.678C35.3583 32.406 35.6623 32.196 36.0183 32.048C36.3783 31.9 36.7823 31.826 37.2303 31.826ZM37.2303 37.25C37.8303 37.25 38.2783 37.05 38.5743 36.65C38.8703 36.246 39.0183 35.684 39.0183 34.964C39.0183 34.24 38.8703 33.676 38.5743 33.272C38.2783 32.868 37.8303 32.666 37.2303 32.666C36.9263 32.666 36.6603 32.718 36.4323 32.822C36.2083 32.926 36.0203 33.076 35.8683 33.272C35.7203 33.468 35.6083 33.71 35.5323 33.998C35.4603 34.282 35.4243 34.604 35.4243 34.964C35.4243 35.684 35.5723 36.246 35.8683 36.65C36.1683 37.05 36.6223 37.25 37.2303 37.25ZM46.6909 31.922V38H45.6229V33.872C45.6229 33.792 45.6269 33.706 45.6349 33.614C45.6429 33.522 45.6529 33.43 45.6649 33.338C45.6289 33.418 45.5929 33.492 45.5569 33.56C45.5209 33.628 45.4829 33.69 45.4429 33.746L42.5089 37.736C42.4649 37.8 42.4089 37.862 42.3409 37.922C42.2769 37.978 42.2049 38.006 42.1249 38.006H41.4769V31.928H42.5509V36.056C42.5509 36.132 42.5469 36.216 42.5389 36.308C42.5309 36.396 42.5209 36.486 42.5089 36.578C42.5449 36.502 42.5809 36.432 42.6169 36.368C42.6529 36.3 42.6889 36.238 42.7249 36.182L45.6589 32.192C45.7029 32.128 45.7589 32.068 45.8269 32.012C45.8949 31.952 45.9689 31.922 46.0489 31.922H46.6909ZM44.1529 30.452C44.3169 30.452 44.4549 30.434 44.5669 30.398C44.6789 30.358 44.7689 30.296 44.8369 30.212C44.9089 30.128 44.9609 30.02 44.9929 29.888C45.0249 29.756 45.0409 29.594 45.0409 29.402H45.6649C45.7409 29.402 45.7989 29.436 45.8389 29.504C45.8789 29.572 45.8989 29.646 45.8989 29.726C45.8989 29.926 45.8589 30.106 45.7789 30.266C45.6989 30.426 45.5829 30.564 45.4309 30.68C45.2829 30.792 45.1009 30.878 44.8849 30.938C44.6689 30.998 44.4249 31.028 44.1529 31.028C43.8809 31.028 43.6369 30.998 43.4209 30.938C43.2049 30.878 43.0209 30.792 42.8689 30.68C42.7209 30.564 42.6069 30.426 42.5269 30.266C42.4469 30.106 42.4069 29.926 42.4069 29.726C42.4069 29.646 42.4269 29.572 42.4669 29.504C42.5069 29.436 42.5649 29.402 42.6409 29.402H43.2649C43.2649 29.594 43.2809 29.756 43.3129 29.888C43.3449 30.02 43.3949 30.128 43.4629 30.212C43.5349 30.296 43.6269 30.358 43.7389 30.398C43.8509 30.434 43.9889 30.452 44.1529 30.452ZM52.0692 32.222C52.1252 32.134 52.1992 32.062 52.2912 32.006C52.3832 31.95 52.4812 31.922 52.5852 31.922H53.4192L51.8412 34.238C51.7452 34.386 51.6452 34.508 51.5412 34.604C51.4372 34.696 51.3092 34.768 51.1572 34.82C51.3492 34.872 51.5112 34.954 51.6432 35.066C51.7752 35.174 51.8932 35.314 51.9972 35.486L53.5932 38H52.8492C52.6572 38 52.5092 37.968 52.4052 37.904C52.3012 37.84 52.2112 37.748 52.1352 37.628L50.9532 35.738C50.7652 35.426 50.4832 35.27 50.1072 35.27H49.4532V38.006H48.3792V31.922H49.4532V34.55H50.0292C50.3492 34.55 50.5992 34.414 50.7792 34.142L52.0692 32.222ZM59.8041 31.922V38H58.7361V33.872C58.7361 33.792 58.7401 33.706 58.7481 33.614C58.7561 33.522 58.7661 33.43 58.7781 33.338C58.7421 33.418 58.7061 33.492 58.6701 33.56C58.6341 33.628 58.5961 33.69 58.5561 33.746L55.6221 37.736C55.5781 37.8 55.5221 37.862 55.4541 37.922C55.3901 37.978 55.3181 38.006 55.2381 38.006H54.5901V31.928H55.6641V36.056C55.6641 36.132 55.6601 36.216 55.6521 36.308C55.6441 36.396 55.6341 36.486 55.6221 36.578C55.6581 36.502 55.6941 36.432 55.7301 36.368C55.7661 36.3 55.8021 36.238 55.8381 36.182L58.7721 32.192C58.8161 32.128 58.8721 32.068 58.9401 32.012C59.0081 31.952 59.0821 31.922 59.1621 31.922H59.8041Z" fill="#C4C4C4"/>
</svg>
