<svg width="40" height="40" viewBox="0 0 40 40" fill="none" xmlns="http://www.w3.org/2000/svg">
<circle cx="20" cy="20" r="20" fill="#247CFF"/>
<path fill-rule="evenodd" clip-rule="evenodd" d="M10.8787 10.8787C10 11.7574 10 13.1716 10 16V24C10 26.8284 10 28.2426 10.8787 29.1213C11.7574 30 13.1716 30 16 30H24C26.8284 30 28.2426 30 29.1213 29.1213C30 28.2426 30 26.8284 30 24V16C30 13.1716 30 11.7574 29.1213 10.8787C28.2426 10 26.8284 10 24 10H16C13.1716 10 11.7574 10 10.8787 10.8787ZM24 15.6667C24.5523 15.6667 25 16.1144 25 16.6667V25.5556C25 26.1079 24.5523 26.5556 24 26.5556C23.4477 26.5556 23 26.1079 23 25.5556V16.6667C23 16.1144 23.4477 15.6667 24 15.6667ZM17 18.8889C17 18.3366 16.5523 17.8889 16 17.8889C15.4477 17.8889 15 18.3366 15 18.8889V25.5556C15 26.1079 15.4477 26.5556 16 26.5556C16.5523 26.5556 17 26.1079 17 25.5556V18.8889ZM21 21.1111C21 20.5588 20.5523 20.1111 20 20.1111C19.4477 20.1111 19 20.5588 19 21.1111V25.5556C19 26.1079 19.4477 26.5556 20 26.5556C20.5523 26.5556 21 26.1079 21 25.5556V21.1111Z" fill="white"/>
</svg>
