<svg width="61" height="40" viewBox="0 0 61 40" fill="none" xmlns="http://www.w3.org/2000/svg">
<circle cx="31" cy="20" r="20" fill="#247CFF"/>
<path fill-rule="evenodd" clip-rule="evenodd" d="M32.884 10.2974C33.0494 10.4944 33.0783 10.7834 33.1361 11.3614C33.246 12.4601 33.3009 13.0095 33.6255 13.2282C33.7181 13.2906 33.8223 13.3337 33.9319 13.3551C34.316 13.4299 34.7433 13.0803 35.5979 12.3811C36.0474 12.0133 36.2722 11.8294 36.5286 11.8071C36.6043 11.8005 36.6806 11.8043 36.7553 11.8184C37.0081 11.8661 37.2135 12.0714 37.6243 12.4822L38.5177 13.3757C38.9285 13.7864 39.1339 13.9918 39.1816 14.2446C39.1957 14.3194 39.1995 14.3956 39.1929 14.4714C39.1706 14.7277 38.9867 14.9525 38.6188 15.4021C37.9196 16.2567 37.57 16.684 37.6448 17.0681C37.6662 17.1777 37.7093 17.2819 37.7717 17.3745C37.9905 17.699 38.5398 17.754 39.6385 17.8639C40.2166 17.9217 40.5056 17.9506 40.7026 18.116C40.7608 18.1649 40.8121 18.2216 40.8549 18.2843C41 18.4969 41 18.7873 41 19.3682V20.6319C41 21.2127 41 21.5031 40.855 21.7156C40.8121 21.7784 40.7608 21.8351 40.7026 21.884C40.5056 22.0494 40.2166 22.0783 39.6386 22.1361C38.5402 22.246 37.9909 22.3009 37.7722 22.6253C37.7097 22.718 37.6665 22.8223 37.6452 22.932C37.5704 23.3161 37.92 23.7432 38.619 24.5976C38.9867 25.0471 39.1706 25.2718 39.1929 25.528C39.1995 25.6039 39.1957 25.6802 39.1816 25.755C39.1339 26.0078 38.9286 26.2131 38.5179 26.6238L37.6243 27.5174C37.2136 27.9281 37.0082 28.1335 36.7554 28.1812C36.6806 28.1953 36.6043 28.1991 36.5286 28.1925C36.2723 28.1702 36.0475 27.9863 35.5979 27.6184C34.7434 26.9193 34.3161 26.5697 33.9319 26.6445C33.8223 26.6658 33.7181 26.709 33.6255 26.7714C33.301 26.9901 33.246 27.5395 33.1362 28.6383C33.0783 29.2165 33.0494 29.5057 32.8839 29.7027C32.835 29.7609 32.7785 29.8121 32.7157 29.8549C32.5032 30 32.2127 30 31.6316 30H30.3682C29.7873 30 29.4969 30 29.2843 29.8549C29.2216 29.8121 29.1649 29.7608 29.116 29.7026C28.9506 29.5056 28.9217 29.2166 28.8639 28.6385C28.754 27.5398 28.699 26.9905 28.3745 26.7717C28.2819 26.7093 28.1777 26.6662 28.0681 26.6448C27.684 26.57 27.2567 26.9196 26.4021 27.6189C25.9525 27.9867 25.7276 28.1707 25.4713 28.193C25.3956 28.1995 25.3193 28.1957 25.2446 28.1817C24.9918 28.134 24.7864 27.9286 24.3756 27.5178L23.4822 26.6243C23.0714 26.2136 22.866 26.0082 22.8183 25.7554C22.8042 25.6807 22.8004 25.6044 22.807 25.5286C22.8293 25.2723 23.0132 25.0475 23.3811 24.5979C24.0803 23.7433 24.4299 23.316 24.3551 22.9319C24.3337 22.8223 24.2906 22.7181 24.2282 22.6255C24.0095 22.3009 23.4601 22.246 22.3614 22.1361C21.7834 22.0783 21.4944 22.0494 21.2974 21.884C21.2392 21.8351 21.1879 21.7784 21.145 21.7156C21 21.5031 21 21.2127 21 20.6318V19.3683C21 18.7873 21 18.4968 21.1451 18.2843C21.1879 18.2215 21.2391 18.165 21.2973 18.1161C21.4943 17.9506 21.7834 17.9217 22.3615 17.8638C23.4605 17.754 24.0099 17.699 24.2286 17.3744C24.291 17.2818 24.3341 17.1777 24.3554 17.0682C24.4303 16.684 24.0806 16.2566 23.3813 15.4018C23.0133 14.9521 22.8293 14.7272 22.807 14.4708C22.8005 14.3951 22.8043 14.319 22.8183 14.2443C22.866 13.9914 23.0714 13.786 23.4823 13.3751L24.3756 12.4818C24.7864 12.071 24.9918 11.8656 25.2447 11.8179C25.3193 11.8038 25.3956 11.8 25.4713 11.8066C25.7277 11.8289 25.9525 12.0129 26.4022 12.3808C27.2567 13.0799 27.684 13.4295 28.068 13.3548C28.1777 13.3334 28.282 13.2902 28.3747 13.2277C28.6991 13.009 28.754 12.4598 28.8639 11.3613C28.9217 10.7834 28.9506 10.4945 29.116 10.2975C29.1649 10.2392 29.2216 10.1879 29.2844 10.145C29.4969 10 29.7873 10 30.3681 10H31.6318C32.2127 10 32.5031 10 32.7156 10.145C32.7784 10.1879 32.8351 10.2392 32.884 10.2974ZM31 24C33.2091 24 35 22.2091 35 20C35 17.7909 33.2091 16 31 16C28.7909 16 27 17.7909 27 20C27 22.2091 28.7909 24 31 24Z" fill="white"/>
</svg>
