<svg width="47" height="41" viewBox="0 0 47 41" fill="none" xmlns="http://www.w3.org/2000/svg">
<path fill-rule="evenodd" clip-rule="evenodd" d="M13.5858 0.585786C13 1.17157 13 2.11438 13 4V16C13 17.8856 13 18.8284 13.5858 19.4142C14.1716 20 15.1144 20 17 20H29C30.8856 20 31.8284 20 32.4142 19.4142C33 18.8284 33 17.8856 33 16V4C33 2.11438 33 1.17157 32.4142 0.585786C31.8284 0 30.8856 0 29 0H17C15.1144 0 14.1716 0 13.5858 0.585786ZM18.7144 4.88233C18.1621 4.88233 17.7144 5.33005 17.7144 5.88233C17.7144 6.43462 18.1621 6.88233 18.7144 6.88233H27.2858C27.8381 6.88233 28.2858 6.43462 28.2858 5.88233C28.2858 5.33005 27.8381 4.88233 27.2858 4.88233H18.7144ZM18.7144 9.58822C18.1621 9.58822 17.7144 10.0359 17.7144 10.5882C17.7144 11.1405 18.1621 11.5882 18.7144 11.5882H27.2858C27.8381 11.5882 28.2858 11.1405 28.2858 10.5882C28.2858 10.0359 27.8381 9.58822 27.2858 9.58822H18.7144ZM18.7144 14.2941C18.1621 14.2941 17.7144 14.7418 17.7144 15.2941C17.7144 15.8464 18.1621 16.2941 18.7144 16.2941H24.4286C24.9809 16.2941 25.4286 15.8464 25.4286 15.2941C25.4286 14.7418 24.9809 14.2941 24.4286 14.2941H18.7144Z" fill="#C4C4C4"/>
<path d="M8.1265 29.402V38H6.9625V31.892C6.9625 31.72 6.9665 31.542 6.9745 31.358C6.9825 31.17 7.0005 30.972 7.0285 30.764C6.9605 30.944 6.8885 31.112 6.8125 31.268C6.7365 31.424 6.6585 31.56 6.5785 31.676L2.5465 37.634C2.4905 37.726 2.4185 37.81 2.3305 37.886C2.2425 37.962 2.1405 38 2.0245 38H1.1605V29.402H2.3245V35.516C2.3245 35.688 2.3205 35.868 2.3125 36.056C2.3045 36.24 2.2865 36.438 2.2585 36.65C2.3265 36.466 2.3985 36.296 2.4745 36.14C2.5545 35.984 2.6325 35.846 2.7085 35.726L6.7405 29.768C6.7965 29.676 6.8685 29.592 6.9565 29.516C7.0445 29.44 7.1465 29.402 7.2625 29.402H8.1265ZM14.1151 33.002C14.0831 33.046 14.0511 33.08 14.0191 33.104C13.9871 33.128 13.9431 33.14 13.8871 33.14C13.8271 33.14 13.7611 33.116 13.6891 33.068C13.6171 33.016 13.5271 32.96 13.4191 32.9C13.3151 32.84 13.1851 32.786 13.0291 32.738C12.8771 32.686 12.6891 32.66 12.4651 32.66C12.1651 32.66 11.9011 32.714 11.6731 32.822C11.4451 32.926 11.2531 33.078 11.0971 33.278C10.9451 33.478 10.8291 33.72 10.7491 34.004C10.6731 34.288 10.6351 34.606 10.6351 34.958C10.6351 35.326 10.6771 35.654 10.7611 35.942C10.8451 36.226 10.9631 36.466 11.1151 36.662C11.2711 36.854 11.4571 37.002 11.6731 37.106C11.8931 37.206 12.1391 37.256 12.4111 37.256C12.6711 37.256 12.8851 37.226 13.0531 37.166C13.2211 37.102 13.3591 37.032 13.4671 36.956C13.5791 36.88 13.6711 36.812 13.7431 36.752C13.8191 36.688 13.8931 36.656 13.9651 36.656C14.0531 36.656 14.1211 36.69 14.1691 36.758L14.4691 37.148C14.3371 37.312 14.1871 37.452 14.0191 37.568C13.8511 37.684 13.6691 37.782 13.4731 37.862C13.2811 37.938 13.0791 37.994 12.8671 38.03C12.6551 38.066 12.4391 38.084 12.2191 38.084C11.8391 38.084 11.4851 38.014 11.1571 37.874C10.8331 37.734 10.5511 37.532 10.3111 37.268C10.0711 37 9.88306 36.672 9.74706 36.284C9.61106 35.896 9.54306 35.454 9.54306 34.958C9.54306 34.506 9.60506 34.088 9.72906 33.704C9.85706 33.32 10.0411 32.99 10.2811 32.714C10.5251 32.434 10.8231 32.216 11.1751 32.06C11.5311 31.904 11.9391 31.826 12.3991 31.826C12.8271 31.826 13.2031 31.896 13.5271 32.036C13.8551 32.172 14.1451 32.366 14.3971 32.618L14.1151 33.002ZM20.6675 32.738H18.3335V38H17.2655V32.738H14.9315V31.922H20.6675V32.738ZM24.0018 31.826C24.4458 31.826 24.8458 31.9 25.2018 32.048C25.5578 32.196 25.8618 32.406 26.1138 32.678C26.3658 32.95 26.5578 33.28 26.6898 33.668C26.8258 34.052 26.8938 34.482 26.8938 34.958C26.8938 35.438 26.8258 35.87 26.6898 36.254C26.5578 36.638 26.3658 36.966 26.1138 37.238C25.8618 37.51 25.5578 37.72 25.2018 37.868C24.8458 38.012 24.4458 38.084 24.0018 38.084C23.5538 38.084 23.1498 38.012 22.7898 37.868C22.4338 37.72 22.1298 37.51 21.8778 37.238C21.6258 36.966 21.4318 36.638 21.2958 36.254C21.1638 35.87 21.0978 35.438 21.0978 34.958C21.0978 34.482 21.1638 34.052 21.2958 33.668C21.4318 33.28 21.6258 32.95 21.8778 32.678C22.1298 32.406 22.4338 32.196 22.7898 32.048C23.1498 31.9 23.5538 31.826 24.0018 31.826ZM24.0018 37.25C24.6018 37.25 25.0498 37.05 25.3458 36.65C25.6418 36.246 25.7898 35.684 25.7898 34.964C25.7898 34.24 25.6418 33.676 25.3458 33.272C25.0498 32.868 24.6018 32.666 24.0018 32.666C23.6978 32.666 23.4318 32.718 23.2038 32.822C22.9798 32.926 22.7918 33.076 22.6398 33.272C22.4918 33.468 22.3798 33.71 22.3038 33.998C22.2318 34.282 22.1958 34.604 22.1958 34.964C22.1958 35.684 22.3438 36.246 22.6398 36.65C22.9398 37.05 23.3938 37.25 24.0018 37.25ZM29.3223 36.536C29.5183 36.8 29.7323 36.986 29.9643 37.094C30.1963 37.202 30.4563 37.256 30.7443 37.256C31.3123 37.256 31.7483 37.054 32.0523 36.65C32.3563 36.246 32.5083 35.67 32.5083 34.922C32.5083 34.526 32.4723 34.186 32.4003 33.902C32.3323 33.618 32.2323 33.386 32.1003 33.206C31.9683 33.022 31.8063 32.888 31.6143 32.804C31.4223 32.72 31.2043 32.678 30.9603 32.678C30.6123 32.678 30.3063 32.758 30.0423 32.918C29.7823 33.078 29.5423 33.304 29.3223 33.596V36.536ZM29.2683 32.864C29.5243 32.548 29.8203 32.294 30.1563 32.102C30.4923 31.91 30.8763 31.814 31.3083 31.814C31.6603 31.814 31.9783 31.882 32.2623 32.018C32.5463 32.15 32.7883 32.348 32.9883 32.612C33.1883 32.872 33.3423 33.196 33.4503 33.584C33.5583 33.972 33.6123 34.418 33.6123 34.922C33.6123 35.37 33.5523 35.788 33.4323 36.176C33.3123 36.56 33.1383 36.894 32.9103 37.178C32.6863 37.458 32.4103 37.68 32.0823 37.844C31.7583 38.004 31.3923 38.084 30.9843 38.084C30.6123 38.084 30.2923 38.022 30.0243 37.898C29.7603 37.77 29.5263 37.594 29.3223 37.37V40.058H28.2483V31.922H28.8903C29.0423 31.922 29.1363 31.996 29.1723 32.144L29.2683 32.864ZM40.1772 31.922V38H39.1092V33.872C39.1092 33.792 39.1132 33.706 39.1212 33.614C39.1292 33.522 39.1392 33.43 39.1512 33.338C39.1152 33.418 39.0792 33.492 39.0432 33.56C39.0072 33.628 38.9692 33.69 38.9292 33.746L35.9952 37.736C35.9512 37.8 35.8952 37.862 35.8272 37.922C35.7632 37.978 35.6912 38.006 35.6112 38.006H34.9632V31.928H36.0372V36.056C36.0372 36.132 36.0332 36.216 36.0252 36.308C36.0172 36.396 36.0072 36.486 35.9952 36.578C36.0312 36.502 36.0672 36.432 36.1032 36.368C36.1392 36.3 36.1752 36.238 36.2112 36.182L39.1452 32.192C39.1892 32.128 39.2452 32.068 39.3132 32.012C39.3812 31.952 39.4552 31.922 39.5352 31.922H40.1772ZM45.0635 34.76V32.642H44.0435C43.8155 32.642 43.6235 32.676 43.4675 32.744C43.3115 32.808 43.1855 32.892 43.0895 32.996C42.9975 33.096 42.9315 33.21 42.8915 33.338C42.8515 33.462 42.8315 33.586 42.8315 33.71C42.8315 34.038 42.9515 34.296 43.1915 34.484C43.4315 34.668 43.7595 34.76 44.1755 34.76H45.0635ZM46.0835 31.922V38H45.0635V35.438H44.5955C44.4835 35.438 44.3895 35.448 44.3135 35.468C44.2415 35.484 44.1775 35.508 44.1215 35.54C44.0695 35.572 44.0235 35.614 43.9835 35.666C43.9435 35.714 43.9015 35.77 43.8575 35.834L42.5255 37.628C42.4575 37.756 42.3735 37.85 42.2735 37.91C42.1775 37.97 42.0355 38 41.8475 38H41.1035L42.8675 35.708C43.0115 35.468 43.2015 35.308 43.4375 35.228C43.1295 35.188 42.8695 35.116 42.6575 35.012C42.4455 34.908 42.2715 34.786 42.1355 34.646C42.0035 34.502 41.9075 34.344 41.8475 34.172C41.7875 34 41.7575 33.826 41.7575 33.65C41.7575 33.442 41.7975 33.234 41.8775 33.026C41.9615 32.818 42.0935 32.634 42.2735 32.474C42.4535 32.31 42.6855 32.178 42.9695 32.078C43.2575 31.974 43.6055 31.922 44.0135 31.922H46.0835Z" fill="#C4C4C4"/>
</svg>
