<svg width="36" height="41" viewBox="0 0 36 41" fill="none" xmlns="http://www.w3.org/2000/svg">
<path fill-rule="evenodd" clip-rule="evenodd" d="M8.87868 0.87868C8 1.75736 8 3.17157 8 6V14C8 16.8284 8 18.2426 8.87868 19.1213C9.75736 20 11.1716 20 14 20H22C24.8284 20 26.2426 20 27.1213 19.1213C28 18.2426 28 16.8284 28 14V6C28 3.17157 28 1.75736 27.1213 0.87868C26.2426 0 24.8284 0 22 0H14C11.1716 0 9.75736 0 8.87868 0.87868ZM22 5.66668C22.5523 5.66668 23 6.1144 23 6.66668V15.5556C23 16.1079 22.5523 16.5556 22 16.5556C21.4477 16.5556 21 16.1079 21 15.5556V6.66668C21 6.1144 21.4477 5.66668 22 5.66668ZM15 8.8889C15 8.33662 14.5523 7.8889 14 7.8889C13.4477 7.8889 13 8.33662 13 8.8889V15.5556C13 16.1079 13.4477 16.5556 14 16.5556C14.5523 16.5556 15 16.1079 15 15.5556V8.8889ZM19 11.1111C19 10.5588 18.5523 10.1111 18 10.1111C17.4477 10.1111 17 10.5588 17 11.1111V15.5556C17 16.1079 17.4477 16.5556 18 16.5556C18.5523 16.5556 19 16.1079 19 15.5556V11.1111Z" fill="#C4C4C4"/>
<path d="M5.98013 34.808L4.63013 31.31C4.59013 31.206 4.54813 31.086 4.50413 30.95C4.46013 30.81 4.41813 30.662 4.37813 30.506C4.29413 30.83 4.20813 31.1 4.12013 31.316L2.77013 34.808H5.98013ZM8.40413 38H7.50413C7.40013 38 7.31613 37.974 7.25213 37.922C7.18813 37.87 7.14013 37.804 7.10812 37.724L6.30413 35.648H2.44613L1.64213 37.724C1.61813 37.796 1.57213 37.86 1.50413 37.916C1.43613 37.972 1.35013 38 1.24613 38H0.352125L3.79013 29.402H4.96613L8.40413 38ZM12.9383 32.222C12.9943 32.134 13.0683 32.062 13.1603 32.006C13.2523 31.95 13.3503 31.922 13.4543 31.922H14.2883L12.7103 34.238C12.6143 34.386 12.5143 34.508 12.4103 34.604C12.3063 34.696 12.1783 34.768 12.0263 34.82C12.2183 34.872 12.3803 34.954 12.5123 35.066C12.6443 35.174 12.7623 35.314 12.8663 35.486L14.4623 38H13.7183C13.5263 38 13.3783 37.968 13.2743 37.904C13.1703 37.84 13.0803 37.748 13.0043 37.628L11.8223 35.738C11.6343 35.426 11.3523 35.27 10.9763 35.27H10.3223V38.006H9.24834V31.922H10.3223V34.55H10.8983C11.2183 34.55 11.4683 34.414 11.6483 34.142L12.9383 32.222ZM21.6333 37.19V39.764C21.6333 39.868 21.6033 39.948 21.5433 40.004C21.4873 40.064 21.4133 40.094 21.3213 40.094H20.6673V38H15.4593V31.922H16.5333V37.19H19.4493V31.922H20.5233V37.19H21.6333ZM27.9272 31.922V38H26.8592V33.872C26.8592 33.792 26.8632 33.706 26.8712 33.614C26.8792 33.522 26.8892 33.43 26.9012 33.338C26.8652 33.418 26.8292 33.492 26.7932 33.56C26.7572 33.628 26.7192 33.69 26.6792 33.746L23.7452 37.736C23.7012 37.8 23.6452 37.862 23.5772 37.922C23.5132 37.978 23.4412 38.006 23.3612 38.006H22.7132V31.928H23.7872V36.056C23.7872 36.132 23.7832 36.216 23.7752 36.308C23.7672 36.396 23.7572 36.486 23.7452 36.578C23.7812 36.502 23.8172 36.432 23.8532 36.368C23.8892 36.3 23.9252 36.238 23.9612 36.182L26.8952 32.192C26.9392 32.128 26.9952 32.068 27.0632 32.012C27.1312 31.952 27.2052 31.922 27.2852 31.922H27.9272ZM34.8295 31.922V38H33.7615V33.872C33.7615 33.792 33.7655 33.706 33.7735 33.614C33.7815 33.522 33.7915 33.43 33.8035 33.338C33.7675 33.418 33.7315 33.492 33.6955 33.56C33.6595 33.628 33.6215 33.69 33.5815 33.746L30.6475 37.736C30.6035 37.8 30.5475 37.862 30.4795 37.922C30.4155 37.978 30.3435 38.006 30.2635 38.006H29.6155V31.928H30.6895V36.056C30.6895 36.132 30.6855 36.216 30.6775 36.308C30.6695 36.396 30.6595 36.486 30.6475 36.578C30.6835 36.502 30.7195 36.432 30.7555 36.368C30.7915 36.3 30.8275 36.238 30.8635 36.182L33.7975 32.192C33.8415 32.128 33.8975 32.068 33.9655 32.012C34.0335 31.952 34.1075 31.922 34.1875 31.922H34.8295Z" fill="#C4C4C4"/>
</svg>
