<svg width="47" height="40" viewBox="0 0 47 40" fill="none" xmlns="http://www.w3.org/2000/svg">
<circle cx="23" cy="20" r="20" fill="#247CFF"/>
<path fill-rule="evenodd" clip-rule="evenodd" d="M13.5858 10.5858C13 11.1716 13 12.1144 13 14V26C13 27.8856 13 28.8284 13.5858 29.4142C14.1716 30 15.1144 30 17 30H29C30.8856 30 31.8284 30 32.4142 29.4142C33 28.8284 33 27.8856 33 26V14C33 12.1144 33 11.1716 32.4142 10.5858C31.8284 10 30.8856 10 29 10H17C15.1144 10 14.1716 10 13.5858 10.5858ZM18.7144 14.8823C18.1621 14.8823 17.7144 15.33 17.7144 15.8823C17.7144 16.4346 18.1621 16.8823 18.7144 16.8823H27.2858C27.8381 16.8823 28.2858 16.4346 28.2858 15.8823C28.2858 15.33 27.8381 14.8823 27.2858 14.8823H18.7144ZM18.7144 19.5882C18.1621 19.5882 17.7144 20.0359 17.7144 20.5882C17.7144 21.1405 18.1621 21.5882 18.7144 21.5882H27.2858C27.8381 21.5882 28.2858 21.1405 28.2858 20.5882C28.2858 20.0359 27.8381 19.5882 27.2858 19.5882H18.7144ZM18.7144 24.2941C18.1621 24.2941 17.7144 24.7418 17.7144 25.2941C17.7144 25.8464 18.1621 26.2941 18.7144 26.2941H24.4286C24.9809 26.2941 25.4286 25.8464 25.4286 25.2941C25.4286 24.7418 24.9809 24.2941 24.4286 24.2941H18.7144Z" fill="white"/>
</svg>
