<svg width="30" height="30" viewBox="0 0 30 30" fill="none" xmlns="http://www.w3.org/2000/svg">
<path d="M9.375 8.4375C9.12636 8.4375 8.8879 8.33873 8.71209 8.16291C8.53627 7.9871 8.4375 7.74864 8.4375 7.5V3.75C8.4375 3.50136 8.53627 3.2629 8.71209 3.08709C8.8879 2.91127 9.12636 2.8125 9.375 2.8125C9.62364 2.8125 9.8621 2.91127 10.0379 3.08709C10.2137 3.2629 10.3125 3.50136 10.3125 3.75V7.5C10.3125 7.74864 10.2137 7.9871 10.0379 8.16291C9.8621 8.33873 9.62364 8.4375 9.375 8.4375ZM20.625 8.4375C20.3764 8.4375 20.1379 8.33873 19.9621 8.16291C19.7863 7.9871 19.6875 7.74864 19.6875 7.5V3.75C19.6875 3.50136 19.7863 3.2629 19.9621 3.08709C20.1379 2.91127 20.3764 2.8125 20.625 2.8125C20.8736 2.8125 21.1121 2.91127 21.2879 3.08709C21.4637 3.2629 21.5625 3.50136 21.5625 3.75V7.5C21.5625 7.74864 21.4637 7.9871 21.2879 8.16291C21.1121 8.33873 20.8736 8.4375 20.625 8.4375Z" fill="#A1B4D0"/>
<path d="M24.375 27.1875H5.625C4.07437 27.1875 2.8125 25.9256 2.8125 24.375V7.5C2.8125 5.94937 4.07437 4.6875 5.625 4.6875H24.375C25.9256 4.6875 27.1875 5.94937 27.1875 7.5V24.375C27.1875 25.9256 25.9256 27.1875 24.375 27.1875ZM5.625 6.5625C5.37636 6.5625 5.1379 6.66127 4.96209 6.83709C4.78627 7.0129 4.6875 7.25136 4.6875 7.5V24.375C4.6875 24.6236 4.78627 24.8621 4.96209 25.0379C5.1379 25.2137 5.37636 25.3125 5.625 25.3125H24.375C24.6236 25.3125 24.8621 25.2137 25.0379 25.0379C25.2137 24.8621 25.3125 24.6236 25.3125 24.375V7.5C25.3125 7.25136 25.2137 7.0129 25.0379 6.83709C24.8621 6.66127 24.6236 6.5625 24.375 6.5625H5.625Z" fill="#A1B4D0"/>
<path d="M26.25 12.1875H3.75C3.50136 12.1875 3.2629 12.0887 3.08709 11.9129C2.91127 11.7371 2.8125 11.4986 2.8125 11.25C2.8125 11.0014 2.91127 10.7629 3.08709 10.5871C3.2629 10.4113 3.50136 10.3125 3.75 10.3125H26.25C26.4986 10.3125 26.7371 10.4113 26.9129 10.5871C27.0887 10.7629 27.1875 11.0014 27.1875 11.25C27.1875 11.4986 27.0887 11.7371 26.9129 11.9129C26.7371 12.0887 26.4986 12.1875 26.25 12.1875ZM10.3125 14.0625H12.1875V15.9375H10.3125V14.0625ZM14.0625 14.0625H15.9375V15.9375H14.0625V14.0625ZM17.8125 14.0625H19.6875V15.9375H17.8125V14.0625ZM21.5625 14.0625H23.4375V15.9375H21.5625V14.0625ZM6.5625 17.8125H8.4375V19.6875H6.5625V17.8125ZM10.3125 17.8125H12.1875V19.6875H10.3125V17.8125ZM14.0625 17.8125H15.9375V19.6875H14.0625V17.8125ZM17.8125 17.8125H19.6875V19.6875H17.8125V17.8125ZM21.5625 17.8125H23.4375V19.6875H21.5625V17.8125ZM6.5625 21.5625H8.4375V23.4375H6.5625V21.5625ZM10.3125 21.5625H12.1875V23.4375H10.3125V21.5625ZM14.0625 21.5625H15.9375V23.4375H14.0625V21.5625Z" fill="#A1B4D0"/>
</svg>
