<svg width="47" height="32" viewBox="0 0 47 32" fill="none" xmlns="http://www.w3.org/2000/svg">
<path d="M33.6509 16.0862L34.5681 15.6877V15.6877L33.6509 16.0862ZM30.954 9.87932L30.0368 10.2778V10.2778L30.954 9.87932ZM16.046 9.87932L15.1288 9.48081H15.1288L16.046 9.87932ZM13.3491 16.0862L14.2662 16.4847H14.2662L13.3491 16.0862ZM21.3922 29.5345L22.3093 29.136V29.136L21.3922 29.5345ZM18.6953 23.3276L17.7781 23.7261V23.7261L18.6953 23.3276ZM3.78725 23.3276L4.70441 23.7261L3.78725 23.3276ZM1.09033 29.5345L2.00749 29.933L1.09033 29.5345ZM45.9097 29.5345L46.8268 29.136V29.136L45.9097 29.5345ZM43.2127 23.3276L42.2956 23.7261V23.7261L43.2127 23.3276ZM28.3047 23.3276L27.3876 22.9291L28.3047 23.3276ZM25.6078 29.5345L26.525 29.933L25.6078 29.5345ZM7.33774 1C7.33774 0.447715 6.89003 0 6.33774 0C5.78546 0 5.33774 0.447715 5.33774 1H7.33774ZM5.33774 11.3448C5.33774 11.8971 5.78546 12.3448 6.33774 12.3448C6.89003 12.3448 7.33774 11.8971 7.33774 11.3448H5.33774ZM11.2412 7.17241C11.7935 7.17241 12.2412 6.7247 12.2412 6.17241C12.2412 5.62013 11.7935 5.17241 11.2412 5.17241V7.17241ZM1.43424 5.17241C0.88196 5.17241 0.434245 5.62013 0.434245 6.17241C0.434245 6.7247 0.88196 7.17241 1.43424 7.17241L1.43424 5.17241ZM34.5681 15.6877L31.8712 9.48081L30.0368 10.2778L32.7338 16.4847L34.5681 15.6877ZM30.0625 8.27586H16.9375V10.2759H30.0625V8.27586ZM15.1288 9.48081L12.4319 15.6877L14.2662 16.4847L16.9632 10.2778L15.1288 9.48081ZM14.2406 18.5517H32.7594V16.5517H14.2406V18.5517ZM12.4319 15.6877C11.8804 16.9569 12.7244 18.5517 14.2406 18.5517V16.5517C14.2429 16.5517 14.2483 16.5521 14.2551 16.5541C14.2618 16.5559 14.2672 16.5585 14.2709 16.5607C14.2778 16.5648 14.2751 16.5653 14.2695 16.5562C14.264 16.5471 14.26 16.5353 14.259 16.5232C14.2582 16.5131 14.2592 16.501 14.2662 16.4847L12.4319 15.6877ZM16.9375 8.27586C16.1328 8.27586 15.4379 8.76946 15.1288 9.48081L16.9632 10.2778C16.9681 10.2665 16.9722 10.2653 16.9684 10.2678C16.9666 10.269 16.963 10.2711 16.9573 10.2729C16.9514 10.2747 16.9445 10.2759 16.9375 10.2759V8.27586ZM31.8712 9.48081C31.5621 8.76946 30.8672 8.27586 30.0625 8.27586V10.2759C30.0555 10.2759 30.0486 10.2747 30.0427 10.2729C30.037 10.2711 30.0334 10.269 30.0316 10.2678C30.0278 10.2653 30.0319 10.2665 30.0368 10.2778L31.8712 9.48081ZM32.7338 16.4847C32.7408 16.501 32.7418 16.5131 32.741 16.5232C32.74 16.5353 32.736 16.5471 32.7305 16.5562C32.7249 16.5653 32.7222 16.5648 32.7291 16.5607C32.7328 16.5585 32.7382 16.5559 32.7449 16.5541C32.7517 16.5521 32.7571 16.5517 32.7594 16.5517V18.5517C34.2756 18.5517 35.1196 16.9569 34.5681 15.6877L32.7338 16.4847ZM22.3093 29.136L19.6124 22.9291L17.7781 23.7261L20.475 29.933L22.3093 29.136ZM17.8037 21.7241H4.67877V23.7241H17.8037V21.7241ZM2.87009 22.9291L0.173163 29.136L2.00749 29.933L4.70441 23.7261L2.87009 22.9291ZM1.98185 32H20.5007V30H1.98185V32ZM0.173163 29.136C-0.378297 30.4052 0.465649 32 1.98185 32V30C1.98417 30 1.9895 30.0004 1.99639 30.0023C2.00306 30.0042 2.00846 30.0067 2.01216 30.009C2.01904 30.0131 2.01634 30.0136 2.0108 30.0045C2.00529 29.9954 2.00122 29.9836 2.00024 29.9714C1.99942 29.9614 2.00042 29.9493 2.00749 29.933L0.173163 29.136ZM4.67877 21.7241C3.87408 21.7241 3.17917 22.2177 2.87009 22.9291L4.70441 23.7261C4.70933 23.7148 4.71341 23.7136 4.70968 23.7161C4.70789 23.7173 4.70426 23.7194 4.69856 23.7212C4.69267 23.723 4.68579 23.7241 4.67877 23.7241V21.7241ZM19.6124 22.9291C19.3033 22.2177 18.6084 21.7241 17.8037 21.7241V23.7241C17.7967 23.7241 17.7898 23.723 17.784 23.7212C17.7783 23.7194 17.7746 23.7173 17.7728 23.7161C17.7691 23.7136 17.7732 23.7148 17.7781 23.7261L19.6124 22.9291ZM20.475 29.933C20.4821 29.9493 20.4831 29.9614 20.4823 29.9714C20.4813 29.9836 20.4772 29.9954 20.4717 30.0045C20.4662 30.0136 20.4635 30.0131 20.4704 30.009C20.474 30.0067 20.4794 30.0042 20.4861 30.0023C20.493 30.0004 20.4983 30 20.5007 30V32C22.0169 32 22.8608 30.4052 22.3093 29.136L20.475 29.933ZM46.8268 29.136L44.1299 22.9291L42.2956 23.7261L44.9925 29.933L46.8268 29.136ZM42.3212 21.7241H29.1963V23.7241H42.3212V21.7241ZM27.3876 22.9291L24.6907 29.136L26.525 29.933L29.2219 23.7261L27.3876 22.9291ZM26.4993 32H45.0182V30H26.4993V32ZM24.6907 29.136C24.1392 30.4052 24.9831 32 26.4993 32V30C26.5017 30 26.507 30.0004 26.5139 30.0023C26.5206 30.0042 26.526 30.0067 26.5297 30.009C26.5365 30.0131 26.5338 30.0136 26.5283 30.0045C26.5228 29.9954 26.5187 29.9836 26.5177 29.9714C26.5169 29.9614 26.5179 29.9493 26.525 29.933L24.6907 29.136ZM29.1963 21.7241C28.3916 21.7241 27.6967 22.2177 27.3876 22.9291L29.2219 23.7261C29.2268 23.7148 29.2309 23.7136 29.2272 23.7161C29.2254 23.7173 29.2217 23.7194 29.216 23.7212C29.2102 23.723 29.2033 23.7241 29.1963 23.7241V21.7241ZM44.1299 22.9291C43.8208 22.2177 43.1259 21.7241 42.3212 21.7241V23.7241C42.3142 23.7241 42.3073 23.723 42.3014 23.7212C42.2957 23.7194 42.2921 23.7173 42.2903 23.7161C42.2866 23.7136 42.2907 23.7148 42.2956 23.7261L44.1299 22.9291ZM44.9925 29.933C44.9996 29.9493 45.0006 29.9614 44.9998 29.9714C44.9988 29.9836 44.9947 29.9954 44.9892 30.0045C44.9837 30.0136 44.981 30.0131 44.9878 30.009C44.9915 30.0067 44.9969 30.0042 45.0036 30.0023C45.0105 30.0004 45.0158 30 45.0182 30V32C46.5344 32 47.3783 30.4051 46.8268 29.136L44.9925 29.933ZM5.33774 1V6.17241H7.33774V1H5.33774ZM5.33774 6.17241V11.3448H7.33774V6.17241H5.33774ZM11.2412 5.17241L6.33774 5.17241V7.17241L11.2412 7.17241V5.17241ZM6.33774 5.17241L1.43424 5.17241L1.43424 7.17241L6.33774 7.17241V5.17241Z" fill="#F5CF04"/>
</svg>
