<svg width="31" height="31" viewBox="0 0 31 31" fill="none" xmlns="http://www.w3.org/2000/svg">
<path fill-rule="evenodd" clip-rule="evenodd" d="M0 15.0024C0 6.71679 6.71679 0 15.0024 0C23.2879 0 30.0047 6.71679 30.0047 15.0024C30.0047 23.2879 23.2879 30.0047 15.0024 30.0047C6.71679 30.0047 0 23.2879 0 15.0024ZM15.0024 1C7.26907 1 1 7.26907 1 15.0024C1 22.7357 7.26907 29.0047 15.0024 29.0047C22.7357 29.0047 29.0047 22.7357 29.0047 15.0024C29.0047 7.26907 22.7357 1 15.0024 1Z" fill="white"/>
<path fill-rule="evenodd" clip-rule="evenodd" d="M12.3537 22.9547C12.3537 24.0843 13.3008 25 14.4691 25C14.4794 25 14.4897 25 14.5 24.9998C14.5103 25 14.5206 25 14.5309 25C15.6992 25 16.6463 24.0843 16.6463 22.9547H12.3537ZM6 21.9435H23V20.9058L20.8612 18.8455V13.7922C20.8302 12.9801 20.7992 12.168 20.5303 11.339C20.2614 10.51 19.7546 9.66404 19.1712 9.03992C18.588 8.41579 17.9282 8.0135 17.4038 7.75723C16.8795 7.50091 16.4906 7.39065 16.1018 7.28035V6.50211C16.1018 6.22888 16.0007 5.92558 15.8563 5.70815C15.7118 5.49071 15.4732 5.28388 15.2315 5.16766C14.9898 5.05143 14.7449 5.02572 14.5 5C14.2551 5.02572 14.0102 5.05143 13.7685 5.16766C13.5268 5.28388 13.2882 5.49071 13.1437 5.70815C12.9993 5.92558 12.8982 6.22888 12.8982 6.50211V7.28035C12.5094 7.39065 12.1205 7.50091 11.5962 7.75723C11.0718 8.0135 10.412 8.41579 9.82875 9.03992C9.24544 9.66404 8.73864 10.51 8.46972 11.339C8.20084 12.168 8.16978 12.9801 8.13878 13.7922V18.8455L6 20.9058V21.9435Z" fill="white"/>
</svg>
